<?xml version="1.0" encoding="utf-8"?>
<!-- Generator: Adobe Illustrator 19.2.1, SVG Export Plug-In . SVG Version: 6.00 Build 0)  -->
<svg version="1.1"
	 id="svg2" inkscape:output_extension="org.inkscape.output.svg.inkscape" inkscape:version="0.46" sodipodi:docname="Chanel logo.svg" sodipodi:version="0.32" xmlns:cc="http://creativecommons.org/ns#" xmlns:dc="http://purl.org/dc/elements/1.1/" xmlns:inkscape="http://www.inkscape.org/namespaces/inkscape" xmlns:rdf="http://www.w3.org/1999/02/22-rdf-syntax-ns#" xmlns:sodipodi="http://sodipodi.sourceforge.net/DTD/sodipodi-0.dtd" xmlns:svg="http://www.w3.org/2000/svg"
	 xmlns="http://www.w3.org/2000/svg" xmlns:xlink="http://www.w3.org/1999/xlink" x="0px" y="0px" viewBox="0 0 152.9 23.6"
	 style="enable-background:new 0 0 152.9 23.6;" xml:space="preserve">
<metadata><?xpacket begin="﻿" id="W5M0MpCehiHzreSzNTczkc9d"?>
<x:xmpmeta xmlns:x="adobe:ns:meta/" x:xmptk="Adobe XMP Core 5.6-c111 79.158366, 2015/09/25-01:12:00        ">
   <rdf:RDF xmlns:rdf="http://www.w3.org/1999/02/22-rdf-syntax-ns#">
      <rdf:Description rdf:about=""/>
   </rdf:RDF>
</x:xmpmeta>
                                                                                                    
                                                                                                    
                                                                                                    
                                                                                                    
                                                                                                    
                                                                                                    
                                                                                                    
                                                                                                    
                                                                                                    
                                                                                                    
                                                                                                    
                                                                                                    
                                                                                                    
                                                                                                    
                                                                                                    
                                                                                                    
                                                                                                    
                                                                                                    
                                                                                                    
                                                                                                    
                           
<?xpacket end="w"?></metadata>
<style type="text/css">
	.st0{fill:#FFFFFF;}
</style>
<defs>
	
	
		<inkscape:perspective  id="perspective41" inkscape:persp3d-origin="121.25 : 80.833333 : 1" inkscape:vp_x="0 : 121.25 : 1" inkscape:vp_y="0 : 1000 : 0" inkscape:vp_z="242.5 : 121.25 : 1" sodipodi:type="inkscape:persp3d">
		</inkscape:perspective>
</defs>
<sodipodi:namedview  bordercolor="#666666" borderopacity="1.0" gridtolerance="10.0" guidetolerance="10.0" id="base" inkscape:current-layer="svg2" inkscape:cx="-0.40702423" inkscape:cy="9.9095772" inkscape:pageopacity="0.0" inkscape:pageshadow="2" inkscape:window-height="667" inkscape:window-width="640" inkscape:window-x="611" inkscape:window-y="368" inkscape:zoom="10.777182" objecttolerance="10.0" pagecolor="#ffffff" showgrid="false">
	</sodipodi:namedview>
<g id="g2452" transform="matrix(2.4763374,0,0,2.4763374,-150.24767,-82.943284)">
	<g id="g2414" transform="matrix(0.6960123,0,0,0.6960123,56.08938,15.250729)">
		<g id="g2438" transform="translate(-33.78554,60.934635)">
			<g id="g4" transform="translate(8.76367,50.1689)">
				<path id="path6" class="st0" d="M44.4-74.7C44.4-74.7,44.4-74.6,44.4-74.7c-1.2,2.3-3.4,3.7-6,3.7c-3.7,0-6.8-3.1-6.8-7
					c0-3.8,3.1-7,6.8-7c2.6,0,4.8,1.5,6,3.7c0,0,0,0.1,0.1,0.1c0,0-2.2,1.6-2.2,1.5v-0.1c-0.6-1.6-2.1-2.6-3.8-2.6
					c-2.3,0-4.2,1.9-4.2,4.3s1.9,4.3,4.2,4.3c1.7,0,3.1-1,3.8-2.5c0-0.1,0-0.1,0.1-0.1L44.4-74.7z"/>
			</g>
			<g id="g8" transform="translate(39.6699,50.4219)">
				<path id="path10" class="st0" d="M16.3-85h2.6v4.9h6.9V-85h2.6v13.5h-2.6v-6h-6.9v6h-2.6V-85z"/>
			</g>
			<g id="g12" transform="translate(136.638,50.4219)">
				<path id="path14" class="st0" d="M-31.7-71.5V-85h9.5v2.7H-29v2.7h6.3v2.7H-29v2.7h7.8v2.7L-31.7-71.5L-31.7-71.5z"/>
			</g>
			<g id="g16" transform="translate(164.664,50.4219)">
				<path id="path18" class="st0" d="M-45.6-71.5V-85h2.7v10.9h7.4v2.7L-45.6-71.5L-45.6-71.5z"/>
			</g>
			<g id="g20" transform="translate(103.166,50.4219)">
				<path id="path22" class="st0" d="M-12.5-71.5L-12.5-71.5h-2.7V-85h0.2h3.5l5.8,8.1V-85H-3v13.5h-2.1l-7.4-10.2V-71.5z"/>
			</g>
			<g id="g24" transform="translate(67.8223,50.4219)">
				<path id="path26" class="st0" d="M10.2-82.3l-2.3,5.4h4.7L10.2-82.3z M6.7-74.2l-1.2,2.7H2.4l6-13.5H12l6,13.5h-3.1l-1.2-2.7
					H6.7z"/>
			</g>
		</g>
	</g>
</g>
</svg>
