<?xml version="1.0" encoding="utf-8"?>
<!-- Generator: Adobe Illustrator 19.2.1, SVG Export Plug-In . SVG Version: 6.00 Build 0)  -->
<svg version="1.1" id="Layer_1" xmlns="http://www.w3.org/2000/svg" xmlns:xlink="http://www.w3.org/1999/xlink" x="0px" y="0px"
	 viewBox="0 0 100 101" style="enable-background:new 0 0 100 101;" xml:space="preserve">
<metadata><?xpacket begin="﻿" id="W5M0MpCehiHzreSzNTczkc9d"?>
<x:xmpmeta xmlns:x="adobe:ns:meta/" x:xmptk="Adobe XMP Core 5.6-c111 79.158366, 2015/09/25-01:12:00        ">
   <rdf:RDF xmlns:rdf="http://www.w3.org/1999/02/22-rdf-syntax-ns#">
      <rdf:Description rdf:about=""/>
   </rdf:RDF>
</x:xmpmeta>
                                                                                                    
                                                                                                    
                                                                                                    
                                                                                                    
                                                                                                    
                                                                                                    
                                                                                                    
                                                                                                    
                                                                                                    
                                                                                                    
                                                                                                    
                                                                                                    
                                                                                                    
                                                                                                    
                                                                                                    
                                                                                                    
                                                                                                    
                                                                                                    
                                                                                                    
                                                                                                    
                           
<?xpacket end="w"?></metadata>
<style type="text/css">
	.st0{fill:#FFFFFF;}
	.st1{fill:none;stroke:#FFFFFF;stroke-width:3;stroke-miterlimit:10;}
</style>
<g>
	<path class="st0" d="M7.2,7.7v85.7h85.7V7.7H7.2z M91.2,91.7H8.9V9.4h82.3V91.7z"/>
</g>
<g>
	<path class="st0" d="M74.4,29h6.7c2.7,0,4.9-2.1,4.9-4.8v-6.7c0-2.6-2.2-4.8-4.9-4.8h-6.7c-2.6,0-4.8,2.2-4.8,4.8v6.7
		C69.6,26.8,71.8,29,74.4,29z M72.5,17.5c0-1,0.9-1.9,1.9-1.9h6.7c1.1,0,2,0.8,2,1.9v6.7c0,1-0.9,1.9-2,1.9h-6.7
		c-1,0-1.9-0.9-1.9-1.9V17.5z"/>
</g>
<line class="st1" x1="66.5" y1="37.3" x2="91.2" y2="37.3"/>
<polyline class="st1" points="8.9,37.3 32.5,37.3 33.5,37.3 "/>
<circle class="st1" cx="50" cy="54.5" r="23.8"/>
<circle class="st1" cx="50" cy="54.5" r="14.3"/>
</svg>
